/* XPM */
static char *result[] = {
/* columns rows colors chars-per-pixel */
"40 39 144 2 ",
"   c #382929",
".  c #312F31",
"X  c #353335",
"o  c #383739",
"O  c #38383A",
"+  c #403D3E",
"@  c #503D3F",
"#  c #7D332F",
"$  c #653432",
"%  c #663B3A",
"&  c #6B3A39",
"*  c #7E3532",
"=  c #733C3A",
"-  c #424143",
";  c #4D4243",
":  c #464749",
">  c #49474A",
",  c #4C4C4E",
"<  c #534446",
"1  c #5B4343",
"2  c #554748",
"3  c #4E4E51",
"4  c #504F52",
"5  c #535255",
"6  c #5B5556",
"7  c #57575A",
"8  c #595759",
"9  c #5E5A5C",
"0  c #635E5E",
"q  c #7F5351",
"w  c #625F60",
"e  c #666263",
"r  c #6B6667",
"t  c #6E6A6B",
"y  c #726D6E",
"u  c #726F70",
"i  c #767374",
"p  c #797576",
"a  c #7F7B7C",
"s  c #8D342F",
"d  c #9F342E",
"f  c #813531",
"g  c #983530",
"h  c #933934",
"j  c #A32E27",
"k  c #A6332C",
"l  c #AD332C",
"z  c #BC362E",
"x  c #AC3630",
"c  c #A43832",
"v  c #AC3A33",
"b  c #A93F39",
"n  c #C5372F",
"m  c #CD362C",
"M  c #CB382F",
"N  c #D0372D",
"B  c #D1392F",
"V  c #DC392F",
"C  c #C33E36",
"Z  c #CA3D35",
"A  c #E43A2F",
"S  c #EF3B30",
"D  c #F43C31",
"F  c #FF3E32",
"G  c #94413D",
"H  c #AF453F",
"J  c #B4423C",
"K  c #BD4039",
"L  c #FF4135",
"P  c #FF473C",
"I  c #994843",
"U  c #924B48",
"Y  c #895350",
"T  c #A74D48",
"R  c #A15753",
"E  c #8E6765",
"W  c #976C6B",
"Q  c #986D6B",
"!  c #857473",
"~  c #8E7574",
"^  c #817D7D",
"/  c #987371",
"(  c #A2726F",
")  c #FF4B40",
"_  c #E5564D",
"`  c #F25147",
"'  c #FF5449",
"]  c #FF584E",
"[  c #FF5E54",
"{  c #FF6E65",
"}  c #FF776E",
"|  c #FF7C73",
" . c #858283",
".. c #898586",
"X. c #8D8B8C",
"o. c #948484",
"O. c #918D8E",
"+. c #998D8D",
"@. c #959293",
"#. c #9A9696",
"$. c #9E9B9B",
"%. c #A58381",
"&. c #A98F8E",
"*. c #A79797",
"=. c #AA9594",
"-. c #A49F9F",
";. c #AA9F9F",
":. c #A6A3A3",
">. c #AAA6A6",
",. c #A8A7A8",
"<. c #AEADAD",
"1. c #B2A6A6",
"2. c #B1AEAE",
"3. c #B5B2B3",
"4. c #BAB6B6",
"5. c #BCBABB",
"6. c #FFA29D",
"7. c #D4ABA8",
"8. c #C3BDBC",
"9. c #FFB1AC",
"0. c #FFBDB9",
"q. c #C6C0BF",
"w. c #C1BFC0",
"e. c #C5C4C4",
"r. c #C9C6C6",
"t. c #C8C7C8",
"y. c #CBCACA",
"u. c #D0CECE",
"i. c #D4D3D3",
"p. c #D8D7D7",
"a. c #DCDCDC",
"s. c #FECBC7",
"d. c #FFCECA",
"f. c #E0DFDF",
"g. c #FFD9D7",
"h. c #FADCDA",
"j. c #E4E3E3",
"k. c #E8E7E7",
"l. c #EDEDED",
"z. c #FFE6E4",
"x. c #FFFFFF",
"c. c #FFF4F3",
"v. c #FFFFFF",
"b. c None",
/* pixels */
"x.x.x.x.x.x.x.x.x.x.x.x.x.x.x.x.x.x.x.x.x.x.x.x.x.x.x.x.x.x.x.x.x.x.x.x.x.x.x.x.",
"x.x.x.x.x.x.x.x.x.x.x.x.x.x.x.x.k.p.t.e.i.j.x.x.x.x.x.x.x.x.x.x.x.x.x.x.x.x.x.x.",
"x.x.x.x.x.x.x.x.x.x.x.x.l.4.%.R H K Z Z C J T ( ;.p.x.x.x.x.x.x.x.x.x.x.x.x.x.x.",
"x.x.x.x.x.x.x.x.x.x.x.;.U M S F F F L F F F F D V H ~ j.x.x.x.x.x.x.x.x.v.x.x.x.",
"x.x.x.x.x.x.x.x.x.r.Y V F F F F F F F F F F F F F P ` I =.l.x.x.x.x.x.x.x.x.x.x.",
"x.x.x.x.x.x.x.l.=.v F F F F F F F F F F F F F L | g.c.z.7.+.p.x.x.x.x.x.x.x.x.x.",
"x.x.x.x.x.x.x.~ m F F F F F F F F F F F F F F ] c.v.v.v.v.l.O.p.x.x.x.x.x.x.x.x.",
"x.x.x.x.x.x.o.A F F F F F F F F F F F F F F F { v.v.v.v.v.v.v.! l.x.x.x.x.x.x.x.",
"x.x.x.x.x.:.m F F F F F F F F F F F F F F F F [ v.v.v.v.v.v.v.h.q x.x.x.x.x.x.x.",
"x.x.x.x.i.d F F F F F F F F F F F F F F F F F F 0.v.v.v.v.v.v.v._ o.x.x.x.x.x.x.",
"x.x.x.x.E F F F F F F F F F D D F F F F F F F F ' z.v.v.v.v.v.v.[ v i.x.x.x.x.x.",
"x.x.x.8.z F F F F F F F z & 2 < 1 f V F F F F F F ' s.v.v.v.v.d.L D / x.x.x.x.x.",
"x.x.x.E F F F F F F F * 3 5 5 5 5 7 ; n F F F F F F L } 9.0.6.) F F c a.x.x.x.x.",
"x.x.j.c F F F F F F g 5 7 -.e.t.<.t 5 < V F F F F F F F F F F F F F A 2.x.x.x.x.",
"x.x.8.V F F F F F V 2 : y.e.i.p.t.i.w 7 $ j l M D F F F F F F F F F F Q x.x.x.x.",
"x.x.=.F F F F D N # 5 X.e.x.v.v.v.t.4.5 8 8 5 , : ; & s z S F F F F F G l.x.x.x.",
"x.x.W F F m h @ , 7 7 <.t.v.v.v.v.i.i.3 7 7 7 7 7 7 7 7 5 : = v A F F v j.x.x.x.",
"x.x.q x % , 7 7 7 7 7 $.e.v.v.v.v.t.t.5 7 7 7 7 7 7 7 7 7 7 7 7 > = x k i.x.x.x.",
"x.x.5 5 7 7 7 7 7 7 7 7 a.u.v.v.j.u. .7 5 4 4 4 5 7 7 7 7 7 7 7 7 8 -   e.x.x.x.",
"x.x.9 7 7 7 7 7 5 5 , 7 t p.i.i.p.#.5 5 #.j.a.i.5.,.X.9 4 5 7 8 8 5 O . t.x.x.x.",
"x.x.e 7 7 5 w X.w.l.e.5 7 5 t i 7 5 5 u x.v.v.v.v.v.v.v.l.e.i 5 > o X X p.x.x.x.",
"x.x.a 4 O.e.x.v.v.v.v.5.3 5 7 7 7 3 i l.v.v.v.v.v.v.v.v.v.l.:.-. .e + X l.x.x.x.",
"x.x.4.a.v.v.v.v.v.v.v.v.x.4.$.@.:.y.v.v.v.v.v.v.v.v.v.v.v.e.-.-.-.-.-.p x.x.x.x.",
"x.x.i.<.v.v.v.v.v.v.v.v.v.v.v.v.v.v.v.v.v.v.v.v.v.v.v.v.x.>.-.-.-.-.$.$.x.x.x.x.",
"x.x.x.a v.v.v.v.v.v.v.v.v.v.v.v.v.v.v.v.v.v.v.v.v.v.v.v.e.-.-.-.-.-.a y.x.x.x.x.",
"x.x.x.2.t.v.v.v.v.v.v.v.v.v.v.v.v.v.v.v.v.v.v.v.v.v.v.a.;.-.-.-.-.$.i x.x.x.x.x.",
"x.x.x.j...v.v.v.v.v.v.v.v.v.v.v.v.v.v.v.v.v.v.v.v.v.x.>.-.-.-.-.-.^ 3.x.x.x.x.x.",
"x.x.x.x.<.>.v.v.v.v.v.v.v.v.v.v.v.v.v.v.v.v.v.v.v.x.>.-.-.-.:.:.*.p l.x.x.x.x.x.",
"x.x.x.x.x.p <.x.v.v.v.v.v.v.v.v.v.v.v.v.v.v.v.x.j.>.-.-.-.-.-.-.e a.x.x.x.x.x.x.",
"x.x.x.x.x.l.e 2.f.v.v.v.v.v.v.v.v.v.v.v.v.v.x.r.:.-.-.-.-.;.-.t 5.x.x.x.x.x.x.x.",
"x.x.x.x.x.x.a.0 #.2.u.x.v.v.v.v.v.v.v.v.j.e.:.;.-.-.-.-.-.-.t 3.x.x.x.x.x.x.x.x.",
"x.x.x.x.x.x.x.f.e O.-.:.2.8.r.i.u.e.4.>.-.-.-.-.-.-.-.-.-.e <.x.x.x.x.x.x.x.x.x.",
"x.x.x.x.x.x.x.x.x.^ t $.;.-.-.-.-.-.-.-.-.-.-.-.-.-.-. .r i.x.x.x.x.x.x.x.v.x.x.",
"x.x.x.x.x.x.x.x.x.x.e.a t #.-.-.;.-.-.-.-.-.-.-.-.^ t :.l.x.x.x.x.x.x.x.x.x.x.x.",
"x.x.x.x.x.x.x.x.x.x.x.x.r. .9 y O.@.$.#.#.O.a 0 r <.k.x.x.x.x.x.x.x.x.x.x.x.x.x.",
"x.x.x.x.x.x.x.x.x.x.x.x.x.x.l.i.:.O. .a ..$.e.k.x.x.x.x.x.x.x.x.x.x.x.x.x.x.x.x.",
"x.x.x.x.x.x.x.x.x.x.x.x.x.x.x.x.x.x.x.x.x.x.x.x.x.x.x.x.x.x.x.x.x.x.x.x.x.x.x.x.",
"x.x.x.x.x.x.v.x.x.x.x.x.x.x.x.x.x.x.x.x.x.x.x.x.x.x.x.x.x.x.x.x.x.x.x.x.x.x.x.x.",
"x.x.x.x.x.x.x.x.x.x.x.x.x.x.x.x.x.x.x.x.x.x.x.x.x.x.x.x.x.x.x.x.x.x.x.x.x.x.x.x.",
"x.x.x.x.x.x.x.x.x.x.x.x.x.x.x.x.x.x.x.x.x.x.x.x.x.x.x.x.x.x.x.x.x.x.x.x.x.x.x.x."
};
