/* XPM */
static char *result[] = {
/* columns rows colors chars-per-pixel */
"38 40 159 2 ",
"   c white",
".  c #FFD723",
"X  c #FFD623",
"o  c #E1991C",
"O  c black",
"+  c #FFD923",
"@  c #FF2E1E",
"#  c #6E0000",
"$  c #F55491",
"%  c #FFDC24",
"&  c #FFDB23",
"*  c #BF2E00",
"=  c #FFDE24",
"-  c #DF951B",
";  c #E29A1C",
":  c #E0971B",
">  c #F9CB21",
",  c #FCD122",
"<  c #F1BB1F",
"1  c #E39E1C",
"2  c #EBAE1E",
"3  c gray77",
"4  c #CAA800",
"5  c gray44",
"6  c #E7A61D",
"7  c #F7F8FA",
"8  c #F3BF20",
"9  c #F4CE21",
"0  c #836B00",
"q  c #D2D4D9",
"w  c gray25",
"e  c #E5A21D",
"r  c #560000",
"t  c #B22100",
"y  c #A28600",
"u  c #967C00",
"i  c #B29400",
"p  c #D3B000",
"a  c #BF9E00",
"s  c #E0E2E5",
"d  c #5F500D",
"f  c #C9CBD1",
"g  c #DEB900",
"h  c #C5A400",
"j  c #F6C621",
"k  c #CFAE1C",
"l  c #ECEEF0",
"z  c #690000",
"x  c #490000",
"c  c #6D5F29",
"v  c #968014",
"b  c #9C9FA7",
"n  c #A96D00",
"m  c #BBBDC4",
"M  c #B29618",
"N  c #8F929B",
"B  c #AA8C00",
"V  c #EBC620",
"C  c #8E5900",
"Z  c #6B5700",
"A  c #68580E",
"S  c #300000",
"D  c #5E0000",
"F  c #A70031",
"G  c #390000",
"H  c #C68418",
"J  c gray49",
"K  c gray13",
"L  c gray37",
"P  c gray8",
"I  c #8D7300",
"U  c #A4A7AF",
"Y  c #734400",
"T  c #765F00",
"R  c #4E420A",
"E  c #A0A0A0",
"W  c #66686E",
"Q  c #565656",
"!  c #AFAFAF",
"~  c #9D8515",
"^  c #524331",
"/  c #A66A00",
"(  c #940011",
")  c #220000",
"_  c #800000",
"`  c #7D6F12",
"'  c #332600",
"]  c #2D2D2D",
"[  c #5B5029",
"{  c #282105",
"}  c #584F2C",
"|  c #75726B",
" . c #180E00",
".. c #5D5A51",
"X. c #665B36",
"o. c #B78A00",
"O. c #5B5541",
"+. c #553C1C",
"@. c #584B12",
"#. c #7B6C30",
"$. c #49361A",
"%. c #929292",
"&. c #55442E",
"*. c #747883",
"=. c #504100",
"-. c #39393E",
";. c #545045",
":. c #69430C",
">. c #77530E",
",. c #BA7A00",
"<. c #4C2E00",
"1. c #5D4728",
"2. c #4C4116",
"3. c #1B2847",
"4. c #4C505B",
"5. c #644921",
"6. c #1E3243",
"7. c #C57615",
"8. c #AE5E11",
"9. c #593131",
"0. c #970000",
"q. c #933D0B",
"w. c #812206",
"e. c #E01700",
"r. c #B66713",
"t. c #9F470C",
"y. c #883008",
"u. c #6A660F",
"i. c #3D2525",
"p. c #744443",
"a. c #4D2709",
"s. c #BC0B15",
"d. c #340F03",
"f. c #55001D",
"g. c #8D002A",
"h. c #14000B",
"j. c #6E0018",
"k. c #705A5A",
"l. c #4D0019",
"z. c #AE103F",
"x. c #CF3367",
"c. c #66223C",
"v. c #441501",
"b. c #381515",
"n. c #42240E",
"m. c #97345B",
"M. c #573F3E",
"N. c #D21718",
"B. c #7B1B4D",
"V. c #D34180",
"C. c #FD5497",
"Z. c #5C1E0A",
"A. c #5B310B",
"S. c #282906",
"D. c #6F1648",
"F. c #A62D67",
"G. c #3C342B",
"H. c #3D2500",
"J. c #6A6450",
/* pixels */
"                              7 k l                                         ",
"                                V 3                                         ",
"                                3 e                                         ",
"                                ! o s                                       ",
"                            l 3 o - 3                                       ",
"                          s , 2 o o E                                       ",
"                        7 9 . 8 o o o q                                     ",
"                        3 9 . X e o o !                                     ",
"                    l 3 . . . . > ; o o                                     ",
"                  s , . . . . . . > ; - s                                   ",
"                s , . . . . . . . . > ; !                                   ",
"              s , . . X j , . . . . . > ; 3                                 ",
"        l s f k 2 2 2 - 6 X . . . . . . < : 3                               ",
"  q 3 9 9 > 8 < 2 6 6 < X . . . . . . . , o - s                             ",
"s , . . . . . . . . . . . . . . . . . . . 2 o E                             ",
"7 V X . . . . . . . . . . . . . . . . . . 8 o - 7                           ",
"    s V , . . . . . . . . . . . . . . . . X 2 - E 3 q l                     ",
"  7 3 X 2 $ 2 V 9 X . X X . . , < . 9 r.9 . . 2 2 9 3 E 3                   ",
"7 % . . $ $ $ 9 , V @ @ < X X 7.- , 7.r.. , M q         7                   ",
"3 6 . 9 V.$ V.2 . < @ @ e . - 8.k E E ! q l | m 3 E f                       ",
"@ e . k c.7.2 V . , @ @ < V V . < f         p.j.Z.# q                       ",
"V.< . 9 9 . . . k A k V . V . . X !         s l p.t.7   s q                 ",
"3 V k . , . . . M m ~ . . V . . . j 7         q - o 3 o o 3                 ",
"s k ! , . . . . 9 ! 9 . . V 3 . . . s       7 V o o 6 8 o q                 ",
"s 9 ! . . . . . . . . . . 9 7 3 . X q       q > 8 V 9 , o s         7       ",
"s . . . . . . . . . . > > 3   7 3 3         q s l 7 q j - 7     7 q e s     ",
"l , . . . . . . . . . 8 2 3 s 7                     9 < ! 7 s 3 o e , , 7   ",
"  3 . . . . . . . . , . . . . 9 3 l               l , 6 o o o o 6 , . . 3   ",
"  l 9 . . . . . . . , V , . . . 9 2.E 7           q X ; o o o < X . . . , l ",
"  7 9 V V 9 , 9 9 3 s   l 3 , . . k O w q       7 9 > o o 6 > . . . . . . 3 ",
"    9 , ! 7 l 7             l q 9 V O O O 3     s . < 6 j X . . . . . X 3 s ",
"    % . 2 7                       7 s f 3 q     3 . , . . . . . . 9 3 l     ",
"    3 . , s                                   l , . . . . , 9 3 s           ",
"    q . . q                                   3 9 9 3 q s l                 ",
"    l X , m                                   l 7                           ",
"      9 k !                                                                 ",
"      3 H.U                                                                 ",
"      s O !                                                                 ",
"        J 3                                                                 ",
"        q s                                                                 "
};
