/* XPM */
static char *result[] = {
/* columns rows colors chars-per-pixel */
"32 40 98 2 ",
"   c #1D1E1E",
".  c #242424",
"X  c #2D2A21",
"o  c #2D2D2A",
"O  c #302B21",
"+  c #373226",
"@  c #383227",
"#  c #33322D",
"$  c #413B2E",
"%  c #4E3F33",
"&  c #7E4C0C",
"*  c #474032",
"=  c #4A4335",
"-  c #4C463A",
";  c #524236",
":  c #584834",
">  c #564639",
",  c #58473A",
"<  c #544C3C",
"1  c #5D4B3D",
"2  c #59503E",
"3  c #5F5A49",
"4  c #604E40",
"5  c #625445",
"6  c #665649",
"7  c #6A584A",
"8  c #6F5F51",
"9  c #64604F",
"0  c #6B624E",
"q  c #6D6455",
"w  c #716052",
"e  c #756B54",
"r  c #796E56",
"t  c #78675A",
"y  c #7B6A5C",
"u  c #76725E",
"i  c #976032",
"p  c #97653A",
"a  c #BF7D2D",
"s  c #996B42",
"d  c #82765D",
"f  c #84785E",
"g  c #9C7E5C",
"h  c #847263",
"j  c #877B61",
"k  c #8A7E63",
"l  c #847F6A",
"z  c #937E60",
"x  c #C28134",
"c  c #C58338",
"v  c #9D805D",
"b  c #8F8266",
"n  c #87826B",
"m  c #8E826B",
"M  c #9F8664",
"N  c #938569",
"B  c #978A6C",
"V  c #9A8C6E",
"C  c #8F8971",
"Z  c #928D75",
"A  c #9C8E71",
"S  c #9E9173",
"D  c #9B957C",
"F  c #A08968",
"G  c #BB9B6F",
"H  c #A39475",
"J  c #A59778",
"K  c #A69878",
"L  c #AB9D7C",
"P  c #C78C46",
"I  c #C99559",
"U  c #CA9B61",
"Y  c #CDAB7D",
"T  c #A49E83",
"R  c #AEA180",
"E  c #ABA589",
"W  c #B0A382",
"Q  c #B4A887",
"!  c #B5AC8C",
"~  c #B8AE8E",
"^  c #B5AE90",
"/  c #B7B094",
"(  c #BDB495",
")  c #BFB899",
"_  c #D0B489",
"`  c #C3BB9B",
"'  c #C7C09F",
"]  c #CBC29F",
"[  c #D3C199",
"{  c #CEC5A3",
"}  c #CFC8A6",
"|  c #D0C7A4",
" . c #D3C9A6",
".. c #D6CFAC",
"X. c #D7D0AD",
"o. c #D8D0AE",
"O. c #D9D2B0",
"+. c None",
/* pixels */
"+.+.+.+.+.+.+.+.+.+.+.+.+.+.+.+.. +.+.+.+.+.+.+.+.+.+.+.+.+.+.+.",
"+.+.+.+.+.+.+.+.+.+.+.+.+.+.+..   +.+.+.+.+.+.+.+.+.+.+.+.+.+.+.",
"+.+.+.+.+.+.+.+.+.+.+.+.+.+.+.. +.+.+.+.+.+.+.+.+.+.+.+.+.+.+.+.",
"+.+.+.+.+.+.+.+.+.+.+.+.+.+.  . . +.+.+.+.+.+.+.+.+.+.+.+.+.+.+.",
"+.+.+.+.+.+.+.+.+.+.+.+.+.+.. . o +.+.+.+.+.+.+.+.+.+.+.+.+.+.+.",
"+.+.+.+.+.+.+.+.+.+.+.+.+.. . . . +.+.+.+.+.+.+.+.+.+.+.+.+.+.+.",
"+.+.+.+.+.+.+.+.+.+.+.+.  . 0 e +.+.+.+.+.+.+.+.+.+.+.+.+.+.+.+.",
"+.+.+.+.+.+.+.+.+.+.+.+.5 f H H +.+.+.+.+.+.+.+.+.+.+.+.+.+.+.+.",
"+.+.+.+.+.+.+.+.+.+.+.+.N H H H +.+.+.+.+.+.+.+.+.+.+.+.+.+.+.+.",
"+.+.+.+.+.+.+.+.+.+.+.k H H H H +.+.+.+.+.+.+.+.+.+.+.+.+.+.+.+.",
"+.+.+.+.+.+.+.+.+.+.+.B H H H H +.+.+.+.+.+.+.+.+.+.+.+.+.+.+.+.",
"+.+.+.+.+.+.+.+.+.+.+.H H H H H +.+.+.+.+.+.+.+.+.+.+.+.+.+.+.+.",
"+.+.+.+.+.+.+.+.+.+.+.H H H H A +.+.+.+.+.+.+.+.+.+.+.+.+.+.+.+.",
"+.+.+.+.+.+.+.+.+.+.B H H H H H f +.+.+.+.+.+.+.+.+.+.+.+.+.+.+.",
"+.+.+.+.+.+.+.+.k H H H H H H H H k +.+.+.+.+.+.+.+.+.+.+.+.+.+.",
"+.+.+.+.+.+.+.B H H H A H H H H H H k +.+.+.+.+.+.+.+.+.+.+.+.+.",
"+.+.+.+.+.+.A K H B < * N H K H H H H d +.+.+.+.+.+.+.+.+.+.+.+.",
"+.+.+.+.+.N M p v = * O V H H H H H H S f B V S H H h . . +.+.+.",
"+.+.+.+.+.B s p v e < d H H H H H b k H S H H H H H - . . . +.+.",
"+.+.+.+.+.v i s f H S H H H H H r $ < d H K H H K J o X o . +.+.",
"+.+.+.+.+.b F A 2 K K K K K K H = 2 + j H H H L S +.+.+.o o . +.",
"+.+.+.+.+.+.L ~ 5 ] {  .X.] ] ] X = + N H S S +.+.+.+.+.+.+.. . ",
"+.+.+.+.+.+.` X.n u 9 D X.X.X.X.! C E ! H e +.+.+.+.+.+.+.+.+.. ",
"+.+.+.+.+.+.+...X.X.X.3 ( ..X.[ Y Y ..X.! +.+.+.+.+.+.+.+.+.+.+.",
"+.+.+.+.+.+.+./ ..o.o.) Z n [ G x c [ ..( +.+.+.+.> , ; +.+.+.+.",
"+.+.+.+.+.+.+.+.~ ..o.o.X.C % i a I  .{ +.+.+.% 1 1 , > +.+.+.+.",
"+.+.+.+.+.+.+.k H K (  ...X._ P U  ...+.+.+.> 1 1 1 , , +.+.+.+.",
"+.+.+.+.+.+.+.S H H H H W ~ ` ] ] ` +.+.+., 1 , 1 1 , , +.+.+.+.",
"+.+.+.+.+.+.k H H H H H H H r +.+.+.+.+., 1 ; , 1 1 8 < +.+.+.+.",
"+.+.+.+.+.+.V H K R Q ! W H k +.+.+.+.; 4 , , 1 7 8 +.+.+.+.+.+.",
"+.+.+.+.+.+.K (  .......X. .` f +.+.+.> 4 1 5 7 +.+.+.+.+.+.+.+.",
"+.+.+.+.+.H { o.o.` ....` X.X.{ +.+.+.+.1 , +.+.+.+.+.+.+.+.+.+.",
"+.+.+.+.+.{ O.X.X.l X...u X...o.) +.+.7 1 4 +.+.+.+.+.+.+.+.+.+.",
"+.+.+.+.+.o.o.X.o.Z o.X.D ..o.....+.q h w +.+.+.+.+.+.+.+.+.+.+.",
"+.+.+.+.) ..X...o.....X.o.X.X.o.O.^ +.y t +.+.+.+.+.+.+.+.+.+.+.",
"+.+.+.+.` ..X.o.X...X.X.X.o.o.o.O.` +.y +.+.+.+.+.+.+.+.+.+.+.+.",
"+.+.+.+. .X.....o.......o.o.o.o.o...l +.+.+.+.+.+.+.+.+.+.+.+.+.",
"+.+.T ) ..o.X.o.o...X.o.X.o.o.o.o.o...' ) +.+.+.+.+.+.+.+.+.+.+.",
"+.o # # q ....) E { ..X.` { o.O.o.E Z T ` ^ +.+.+.+.+.+.+.+.+.+.",
"+.+.+.+.+.^ +.+.+.+.^ ( # # +.( ) T o o +.+.+.+.+.+.+.+.+.+.+.+."
};
