/* XPM */
static char *result[] = {
/* columns rows colors chars-per-pixel */
"25 32 76 1 ",
"  c #092933",
". c #092A34",
"X c #0A2B35",
"o c #0A2E3A",
"O c #0B2E3A",
"+ c #0B303C",
"@ c #0B303D",
"# c #0B313E",
"$ c #0C323F",
"% c #0C3340",
"& c #0D3948",
"* c #0E3D4D",
"= c #0F3E4E",
"- c #0F3E4F",
"; c #13495B",
": c #134E63",
"> c #154E62",
", c #15556D",
"< c #18556A",
"1 c #18586D",
"2 c #155871",
"3 c #165973",
"4 c #175E78",
"5 c #18627E",
"6 c #196785",
"7 c #1A6A88",
"8 c #1B6D8C",
"9 c #1B6F90",
"0 c #1C7192",
"q c #1D7598",
"w c #1D7698",
"e c #1D7699",
"r c #1D779A",
"t c #1F7FA5",
"y c #207FA4",
"u c #2382A4",
"i c #2081A8",
"p c #238BB4",
"a c #238BB5",
"s c #2C92B5",
"d c #2491BC",
"f c #2D97BB",
"g c #2695C1",
"h c #2696C3",
"j c #2696C4",
"k c #2697C4",
"l c #2797C4",
"z c #2697C5",
"x c #279BC9",
"c c #289ECE",
"v c #289FCF",
"b c #349BC5",
"n c #309FC5",
"m c #2EA1CC",
"M c #2FA5D0",
"N c #2BAADE",
"B c #2CADE1",
"V c #2DB2E7",
"C c #2DB2E8",
"Z c #2FB4E8",
"A c #2EB7EE",
"S c #30B2E4",
"D c #30B3E6",
"F c #2FBAF3",
"G c #2FBBF4",
"H c #33BCF4",
"J c #42A0C6",
"K c #4CA3C6",
"L c #59A7C7",
"P c #5AA8C7",
"I c #5AC9F6",
"U c #83D6F8",
"Y c #A1E0FA",
"T c #C7EDFC",
"R c #CBEEFC",
"E c None",
/* pixels */
"EEEEEEEEEEEEEEEEEEEEEEEEE",
"EEE                   EEE",
"E.3pjkJLbJPPPPPPKlkkhi&EE",
" ,AGGGUTIURRRRRRYHGGGGr+E",
" aGGGGGGGGGGGGGGGGGGGG0oE",
" hGGGGCvvvvvvvvvvvvvct%EE",
" kGGGG7               EEE",
" kGGGG6EEEEEEEEEEEEEEEEEE",
" kGGGG6EEEEEEEEEEEEEEEEEE",
" kGGGG6EEEEEEEEEEEEEEEEEE",
" kGGGG6EEEEEEEEEEEEEEEEEE",
" kGGGG6EEEEEEEEEEEEEEEEEE",
" kGGGG6EEEEEEEEEEEEEEEEEE",
" kGGGGw*-----------=$EEEE",
" kGGGGBkkkkkkkkkkkkhy#EEE",
" kGGGGGGGGGGGGGGGGGGG8EEE",
" kGGGGGGGGGGGGGGGGGGG5EEE",
" kGGGGxeeeeeeeeeeeeq4.EEE",
" kGGGG6              EEEE",
" kGGGG6EEEEEEEEEEEEEEEEEE",
" kGGGG6EEEEEEEEEEEEEEEEEE",
" kGGGG6EEEEEEEEEEEEEEEEEE",
" kGGGG6EEEEEEEEEEEEEEEEEE",
" kGGGG6EEEEEEEEEEEEEEEEEE",
" kGGGG6EEEEEEEEEEEEEEEEEE",
" kGGGG6EEEEEEEEEEEEEEEEEE",
" kGGGG9XXXXXXXXXXXXXX  EE",
" gGGGGNzzzzzzzzzzzzzzd2@E",
" uFGGGGGGGGGGGGGGGGGGGV:E",
"E>MSZZZZZZZZZZZZZZZZZDm;E",
"E.1snnnnnnnnnnnnnnnnnf<OE",
"EE                     EE"
};
