/* XPM */
static char *result[] = {
/* columns rows colors chars-per-pixel */
"40 39 190 2 ",
"   c #020202",
".  c #090801",
"X  c #1A1A1A",
"o  c #2A2A2A",
"O  c #36332A",
"+  c #700B0F",
"@  c #6B0B10",
"#  c #433A09",
"$  c #7C220E",
"%  c #71340D",
"&  c #772716",
"*  c #763F2B",
"=  c #5C4F0D",
"-  c #4D441C",
";  c #40403F",
":  c #7C453D",
">  c #464646",
",  c #555553",
"<  c #6C6C6C",
"1  c #7A7769",
"2  c #8D1824",
"3  c #DF3212",
"4  c #E92B12",
"5  c #F52D13",
"6  c #C93C2A",
"7  c #864E12",
"8  c #895011",
"9  c #B4470F",
"0  c #8F7A15",
"q  c #947E16",
"w  c #BF5D30",
"e  c #BA7927",
"r  c #A47D3D",
"t  c #C04C1F",
"y  c #C95C15",
"u  c #C66B18",
"i  c #C77737",
"p  c #D33D4C",
"a  c #827841",
"s  c #AD734E",
"d  c #827D66",
"f  c #A27B73",
"g  c #CF424C",
"h  c #D7414F",
"j  c #CC5D4F",
"k  c #D1554F",
"l  c #EB535F",
"z  c #D47340",
"x  c #C66658",
"c  c #ED5460",
"v  c #9A8316",
"b  c #A28B18",
"n  c #BE891C",
"m  c #B89D19",
"M  c #8E8038",
"N  c #AE9620",
"B  c #B39D31",
"V  c #B6873A",
"C  c #B7A237",
"Z  c #CC8C1F",
"A  c #D18C1F",
"S  c #C49A1D",
"D  c #D0981C",
"F  c #C6A91C",
"G  c #C6A61D",
"H  c #DDAA1F",
"J  c #CFB11F",
"K  c #D5B11F",
"L  c #D8B81E",
"P  c #C18B25",
"I  c #D48F20",
"U  c #D69222",
"Y  c #DC9422",
"T  c #DD9922",
"R  c #D2912A",
"E  c #C68835",
"W  c #C7943C",
"Q  c #E19722",
"!  c #E29A22",
"~  c #C9AA28",
"^  c #D3AD24",
"/  c #D7A827",
"(  c #CCB02B",
")  c #DCBB22",
"_  c #DCBD2B",
"`  c #D8B325",
"'  c #CDB33C",
"]  c #D5BB3B",
"[  c #D5B73A",
"{  c #D2A33A",
"}  c #E6A323",
"|  c #E6A824",
" . c #E9AB23",
".. c #E3B222",
"X. c #EBB324",
"o. c #EFBA24",
"O. c #E1BC25",
"+. c #F0BE24",
"@. c #DEC02E",
"#. c #E4C222",
"$. c #EBC624",
"%. c #EDCA24",
"&. c #E4C42B",
"*. c #EBC92A",
"=. c #F2C325",
"-. c #F3CD25",
";. c #F6D126",
":. c #F8D326",
">. c #E4C632",
",. c #E2C439",
"<. c #988E58",
"1. c #A0934D",
"2. c #BF9A4F",
"3. c #B9965F",
"4. c #AF8950",
"5. c #B8A855",
"6. c #BAA749",
"7. c #A98E66",
"8. c #B1A46B",
"9. c #BAA863",
"0. c #BDB06E",
"q. c #B2A877",
"w. c #C7974C",
"e. c #CCB543",
"r. c #C5B047",
"t. c #D7BE49",
"y. c #CDA058",
"u. c #C2B158",
"i. c #C9A366",
"p. c #CBB963",
"a. c #C7A97A",
"s. c #C6A670",
"d. c #C3B674",
"f. c #CDBE7B",
"g. c #C3B87E",
"h. c #DEC449",
"j. c #DEC650",
"k. c #E0C856",
"l. c #D9C666",
"z. c #CFC27E",
"x. c #D3C57D",
"c. c #DBCB7B",
"v. c #D6C575",
"b. c #E0CD70",
"n. c gray56",
"m. c #9C9C9C",
"M. c #A88A88",
"N. c #BDA580",
"B. c #BBB183",
"V. c #B7AA96",
"C. c #B2B2B2",
"Z. c #C7BC84",
"A. c #C9BA9D",
"S. c #CBB188",
"D. c #CCBDA8",
"F. c #CEC287",
"G. c #D3C684",
"H. c #D4C88A",
"J. c #CCC393",
"K. c #D9CB99",
"L. c #CDC6A3",
"P. c #D6C9A8",
"I. c #D5CEB5",
"U. c #D9CBB6",
"Y. c #D3C9BB",
"T. c #DBD5BC",
"R. c #DFD8B5",
"E. c #CAC8BC",
"W. c #C7C7C7",
"Q. c #D6CEC5",
"!. c #D7D5CD",
"~. c #DCD6C8",
"^. c #D9D8D6",
"/. c #E2DCCC",
"(. c #E2CAC7",
"). c #E7E1C2",
"_. c #E5E2D3",
"`. c #E3E1DC",
"'. c #EBE8DD",
"]. c #E6E5E2",
"[. c #EAE8E3",
"{. c #EEEDEB",
"}. c #E8E7E6",
"|. c #F0EFEC",
" X c #F2F1EE",
".X c #EEEFF0",
"XX c #F4F4F3",
"oX c #F9F9F7",
"OX c #FFFFFF",
"+X c None",
/* pixels */
"OXOXOXOXOXOXOXOXOXOXOXOXOXOXOXOXOXOXOXOXOXOXOXOXC.m.OXOXOXOXOXOXOXOXOXOXOXOXOXOX",
"OXOXOXOXOXOXOXOXOXOXOXOXOXOXOXOXOXOXOXOXOXOXOX{.X < OXOXOXOXOXOXOXOXOXOXOXOXOXOX",
"OXm.n.C.XXOXOXOXOXOXOXOXOXOXOXOXOXOXOXOXOXOXOXm.  > OXOXOXOXOXOXOXOXOXOXOXOXOXOX",
"OX^.o . o 1 _.oXOXOXOXOXOXOXOXOXOXOXOXOXOXOXoXM   ; OXOXOXOXOXOXOXOXOXOXOXOXOXOX",
"OXOX!.X   = *.u._.OXOXOXOXOXOXOXOXOXOXOXOXOX/.%.v , OXOXOXOXOXOXOXOXOXOXOXOXOXOX",
"OXOXOXW.X # :.:.>.v.'.OXOXOXOXOXOXOXOXOXOXOXf.:.-.q.OXOXOXOXOXOXOXOXOXOXOXOXOXOX",
"OXOXOXOXW.O o.:.:.:.] I.OXOXOXOXOXOXOXOXOXOXk.:.:.K.OXOXOXOXOXOXOXOXOXOXOXOXOXOX",
"OXOXOXOXOX.X3.T =.:.:.*.L.OXOXOXOXOXOXOXOX}.,.:.-.P.OXOXOXOXOXOXOXOXOXOXOXOXOXOX",
"OXOXOXOXOXOXOXY.W } =.:.#.5.6.r.5.H.~.oXOX_.*.:.O.~.OXOXOXOXOXOXOXOXOXOXOXOXOXOX",
"OXOXOXOXOXOXOXOXoXD.y.` :.:.:.:.:.:.:.e.T.R.-.:.{ XXOXOXOXOXOXOXOXOXOXOXOXOXOXOX",
"OXOXOXOXOXOXOXOXOXOX_._ :.:.:.:.:.:.:.:.&.5.%.-.i.OXOXOXOXOXOXOXOXOXOXOXOXOXOXOX",
"OXOXOXOXOXOXOXOXOXOXl.:.-.:.:.:.:.:.:.:.:.-.#...U.oXOXOXOXOXOXOXOXOXOXOXOXOXOXOX",
"OXOXOXOXOXOXOXOXOX`.&.0 d ` :.:.:.:.:.:.:.:.-.W oXOXOXOXOXOXOXOXOXOXOXOXOXOXOXOX",
"OXOXOXOXOXOXOXOXOXd.-.# ; N :.:.:.:.:.:.:.:.:.B.OXOXOXOXOXOXOXOXOXOXOXOXOXOXOXOX",
"OXOXOXOXOXOXOXOX(.t $.J b -.:.#.%.:.:.( 5.$.:.J.OXOXOXOXOXOXOXOXOXOXOXOXOXOXOXOX",
"OXOXOXOXOXOXOXOXj 4 H ;.:.) ) G %.:.:.- , v %./.OXOXOXOXOXOXOXOXOXOXOXOXOXOXOXOX",
"OXOXOXOXOXOXOXOX6 4 H :.:.7 @ + 8 K %.b # L >.|.OXOXOXOXOXOXOXOXOXOXOXOXOXOXOXOX",
"OXOXOXOXOXOXOXOXx y :.:.:.w h p 2 % %.:.:.:.e.OXOXoX.XOXOXOXOXOXOXOXOXOXOXOXOXOX",
"OXOXOXOXOXOXOXOXK.*.:.:.:.z c c g S :.:.%.u s P.l.h.] !.OXOXOXOXOXOXOXOXOXOXOXOX",
"OXOXOXOXOXOXOXoX^.] :.:.:.i c c E :.:.:.y 5 u ;.:.:.:.u.OXOXOXOXOXOXOXOXOXOXOXOX",
"OXOXOXOXOXXXH.] ,.) F L %.^ k i %.:.:.%.4 3 H :.:.:._ L.OXOXOXOXOXOXOXOXOXOXOXOX",
"OXOXOXOXoXz.:.:.:.:.:.:.J L L :.:.:.:.-.9 D :.:.:.#.B l.c.H.L.~.XXOXOXOXOXOXOXOX",
"OXOXOXOX{.' :.:.:.:.:.:.:.F ..=.:.:.#.J L :.:.:...m :.:.:.:.:.;.@.j.c.I.oXOXOXOX",
"OXOXOXOX.Xj.:.:.:.:.:.:.:.m X.X.:.:.-.:.:.:.-. .4.#.:.:.:.:.:.:.:.:.:.;.] z.'.OX",
"OXOXOXOXOXT.R }  .X.o.H K F :.:.:.:.:.:.;.o.D a.P.;.} +.:.:.:.:.:.:.:.:.:.-.0.OX",
"OXOXOXOXOXOX^.2.D Z G O.:.:.:.:.:.:.:.:. .R A.OXd.o.Q T } +.:.:.:.:.:.:.-.G.OXOX",
"OXOXOXOXOXOXOXr.:.:.:.:.:.:.:.:.:.:.:.;.V /.OXOX' X.T Y ! !  .-.:.:.:.:.G.oXOXOX",
"OXOXOXOXOXOX`.#.:.:.:.:.:.:.:.:.:.:.:.:.8.XX X}.@. .R D.a.w.R ! =.:.-.v.oXOXOXOX",
"OXOXOXOXOXOXZ.:.:.:.:.:.:.:.:.:.:.:.:.:.g.A./ ' %.T S.OXOXOX[.D.i.[ f.oXOXOXOXOX",
"OXOXOXOXOXOXe.:.:.:.:.:.:.:.:.:.:.:.:.:.F.U.Y  .=.E {.OXOXOXOXOXOXXXoXOXOXOXOXOX",
"OXOXOXOXOX!.%.:.:.:.:.:.:.:.:.:.:.:.:.:.u.Q.e 4.s.U.OXOXOXOXOXOXOXOXOXOXOXOXOXOX",
"OXOXOXOXOXG.:.:.:.:.:.:.:.:.:.:.:.:.:.:.F : 2 f OXOXOXOXOXOXOXOXOXOXOXOXOXOXOXOX",
"OXOXOXOX Xt.:.:.:.:.:.:.:.:.:.:.:.:.:.:.$.* & M.OXOXOXOXOXOXOXOXOXOXOXOXOXOXOXOX",
"OXOXOXOX'._ :.:.:.:.:.:.:.:.:.:.:.:.:.:.:.g.`.].OXOXOXOXOXOXOXOXOXOXOXOXOXOXOXOX",
"OXOXOXOX{.[  .X.-.;.;.:.:.=.+.X.o.=.-.:.:.b.OXOXOXOXOXOXOXOXOXOXOXOXOXOXOXOXOXOX",
"OXOXOXOXOXA.A Q Q ! ! Q D A A Q Q ! !  .-.H.OXOXOXOXOXOXOXOXOXOXOXOXOXOXOXOXOXOX",
"OXOXOX{.8.( ..A i q.U.~.Q.V.7.w.E R U A P I.oXOXOXOXOXOXOXOXOXOXOXOXOXOXOXOXOXOX",
"OXOXOXE.1.9.S.P./.oXOXOXOXOXOXoX}.Y.r n o.^ <._.OXOXOXOXOXOXOXOXOXOXOXOXOXOXOXOX",
"OXOXOXOXOXOXOXOXOXOXOXOXOXOXOXOXOXOXOX|.).f.C a OXOXOXOXOXOXOXOXOXOXOXOXOXOXOXOX"
};
