/* XPM */
static char *result[] = {
/* columns rows colors chars-per-pixel */
"41 40 165 2 ",
"   c #665D54",
".  c #655F5D",
"X  c #6E5D5A",
"o  c #7D5C55",
"O  c #7D5658",
"+  c #735D5C",
"@  c #7D5C5B",
"#  c #5F675C",
"$  c #6D6457",
"%  c #63655D",
"&  c #6B625C",
"*  c #756553",
"=  c #7D6657",
"-  c #73625C",
";  c #7C615D",
":  c #5F5F60",
">  c #6E5F63",
",  c #6F5F6A",
"<  c #725E62",
"1  c #7B5E60",
"2  c #5D6663",
"3  c #596965",
"4  c #5C656A",
"5  c #566A6A",
"6  c #656663",
"7  c #6C6163",
"8  c #656963",
"9  c #65666A",
"0  c #6C626A",
"q  c #726263",
"w  c #6B6470",
"e  c #845D5C",
"r  c #8E5F5C",
"t  c #945D5E",
"y  c #9B5B5E",
"u  c #816856",
"i  c #83615D",
"p  c #8D615B",
"a  c #8B695C",
"s  c #94655D",
"d  c #986C5F",
"f  c #A1645F",
"g  c #825F65",
"h  c #965B64",
"j  c #8C6463",
"k  c #8B6866",
"l  c #946563",
"z  c #996162",
"x  c #966C65",
"c  c #9D6A62",
"v  c #9F656A",
"b  c #9B6A69",
"n  c #A36562",
"m  c #A86660",
"M  c #A26B65",
"N  c #A86E63",
"B  c #A06868",
"V  c #BA6F67",
"C  c #B76C6C",
"Z  c #BE6C69",
"A  c #AE7463",
"S  c #AA736B",
"D  c #B17362",
"F  c #BA7163",
"G  c #B57269",
"H  c #BB756E",
"J  c #B77B6F",
"K  c #B87B6F",
"L  c #AA7F76",
"P  c #BB7971",
"I  c #DF765D",
"U  c #DB7B5E",
"Y  c #EB6D57",
"T  c #E76F5C",
"R  c #ED6D5E",
"E  c #F16C5D",
"W  c #E37354",
"Q  c #EC7157",
"!  c #E5735D",
"~  c #EA715D",
"^  c #E1785F",
"/  c #F0725C",
"(  c #C37366",
")  c #CA7565",
"_  c #C17A63",
"`  c #C3746D",
"'  c #CB726A",
"]  c #CE7A6F",
"[  c #D57566",
"{  c #DC7566",
"}  c #D37B66",
"|  c #DB7866",
" . c #DB746A",
".. c #D67969",
"X. c #DB7A69",
"o. c #C37571",
"O. c #D87770",
"+. c #DF7971",
"@. c #E66F65",
"#. c #ED6E62",
"$. c #EE6D6B",
"%. c #F26C63",
"&. c #F66E6A",
"*. c #E57362",
"=. c #EB7061",
"-. c #E07864",
";. c #E3746A",
":. c #EB7268",
">. c #E27A6C",
",. c #EB796C",
"<. c #F17065",
"1. c #F3726B",
"2. c #948989",
"3. c #BC8385",
"4. c #CF8789",
"5. c #D18D87",
"6. c #D5908B",
"7. c #DF9F93",
"8. c #E59F8F",
"9. c #E49E93",
"0. c #DEA394",
"q. c #DDA49C",
"w. c #DEAA9B",
"e. c #E2A296",
"r. c #E2A49A",
"t. c #E3AA9D",
"y. c #DCA4A6",
"u. c #DEA9A1",
"i. c #DDB1AB",
"p. c #CFBDB2",
"a. c #DEB4B4",
"s. c #DEBBB6",
"d. c #E3A6A3",
"f. c #E2ABA5",
"g. c #E3ACAA",
"h. c #E8AEA9",
"j. c #E2B3AC",
"k. c #EAB0AC",
"l. c #E0B5B5",
"z. c #E0BFB3",
"x. c #DFC6B9",
"c. c #EBC6B9",
"v. c #EDC8BE",
"b. c #D6C9C1",
"n. c #DAC6CD",
"m. c #D6CBCC",
"M. c #DACFCF",
"N. c #DDCED0",
"B. c #D3D0D0",
"V. c #E4C5C4",
"C. c #F7D0CC",
"Z. c #F3D9CE",
"A. c #E0CCD5",
"S. c #F1D6D3",
"D. c #FAD7D5",
"F. c #F5DED6",
"G. c #F3EBDF",
"H. c #F8E4E2",
"J. c #F6EDE6",
"K. c #F0E6EE",
"L. c #F2EEEA",
"P. c #FAE9E9",
"I. c #FBF4EF",
"U. c #F5F4F5",
"Y. c #FCF4F3",
/* pixels */
"L.Z.i.r.9.e.e.e.e.r.r.r.r.7.r.0.r.0.j.H.U.U.s.0.e.e.r.e.e.r.r.r.e.r.r.w.9.8.r.G.L.",
"C. .>.:.:.<.<.=.#.=.#.#.#.@.:.=.:.#.} i.B.c.) { *.=.#.=.:.#.#.:.=.:.=.:.=.%.1. .D.",
"k.*.=.=.=.=.=.~ =.=.=.~ #.R =.=.=.=.-.z : r -.=.=.=.=.=.#.=.=.~ %.=.=.~ *.#.! %.d.",
"g.! *.~ =.#.=.=.=.=.#.=.#.*.=.=.=.R -.t 6 s ;.! =.=.=.#.=.=.=.#.=.=.=.R *.#.! %.f.",
"f.*.*.=.=.=.R =.=.=.=.#.=.~ =.=.=.=.-.t 6 z ;.! =.#.~ #.=.~ #.=.=.=.=.~ *.%.T %.d.",
"d.*.~ =.=.=.=.=.=.#.=.=.#.=.=.=.#.=.-.t 9 s { ! =.=.=.=.=.=.=.=.#.~ =.E @.#.! %.g.",
"d.=.=.=.=.=.%.=.=.~ =.=.=.=.~ =.=.=.-.t 9 s *.=.=.=.=.=.=.=.=.=.=.=.=.R *.E ~ #.g.",
"d.=.~ =.=.%.=.~ =.#.#.#.~ %.%.=.#.R -.t 6 s @.=.R #.=.#.=.R #.#.#.=.#.~ *.#.R %.g.",
"f.=.=.=.#.#.#.=.#.=.=.=.#.%.~ %.%.=.{ s 6 s *.:.=.=.#.=.=.=.=.=.=.#.=.~ *.#.! &.f.",
"f.=.=.=.=.#.=.~ =.=.=.=.=.=.=.=.=.=.{ h 6 s @.=.=.=.=.=.*.R =.=.=.=.*.~ -.#.~ %.d.",
"f.*.*.=.~ =.R @.~ *.=.~ =.=.=.#.=.=.X.l % s ;.! *.~ *.=.*.R *.~ =.=.R ~ *.=.! #.f.",
"f.! *.*.*.=.=.*.*.=.*.*.~ =.=.#.=.=.| p 8 p { =.=.*.*.~ *.*.*.*.! *.*.! { R ! #.f.",
"j.X.[  .[ {  .[ [ [ { [  . . . .{ { ( e 8 o ' ..{ { ....{ { { {  .[ [ [ ) { | +.j.",
"G.x.; ; * @ e + * ; ; - q @ e q q i q . . 6 - q j q ; ; @ ; @ e e - @ @ ; @ o b.Y.",
"G.B.> 7 & 9 w 0 > & & # % % % # # % 7 7 > > > . & % & & & % # & < 9 0 0 7 q < m.U.",
"S.y.v B d & 4 7 j c b v m m m m m m c c M c c c c c f n d c x b l 6 9 q l d n y.V.",
"i. .;.@.{ p % ; ` { *.%.@.:.:.*.*.*.-.;.-.*.;.-.*.:.:.=.*.#.;.;.( * % a +.>.-.$.q.",
"d.@.@.E #.M 8 i X.! ! %.R ! R ~ #.R ~ R R R R R #.R R R R %.#.#...= % x &./ W &.r.",
"d.@.*.~ :.b 6 e  .*.-.*.#.#.#.#.#.#.=.@.=.*.=.=.#.*.R *.*.#.*.=...i 6 c :.T ~ =.f.",
"q.@.%.! ! f 0 = { =.#.=.=.=.#.=.#.~ =.=.#.~ =.=.#.=.=.=.R #.*.~ [ g > v ! *.#.=.f.",
"u.*.%.~ ! f q =  .:.#.#.*.#.=.~ =.=.~ =.=.#.=.=.~ =.=.=.=.#.*.~ | j 6 n *.~ R :.d.",
"u.*.#.~ -.f 7 ; X.#.#.=.~ =.#.=.~ #.#.=.=.=.=.=.=.#.=.=.=.~ *.~ { g > z ! ~ :.=.q.",
"f.*.%.~ *.f 7 ;  .#.#.#.=.=.R #.=.=.=.=.=.=.=.=.#.=.=.=.=.=.*.~ | g 7 n *.! <.! d.",
"u.~ %.! *.f 7 =  .#.%.:.*.#.=.#.#.=.=.=.=.=.R =.=.=.=.#.=.=.*.R { q 7 n *.~ %.! f.",
"u.@.T E $.c 7 j O.R E ! ! ! @.! ! T Q E #.~ R R ! ! T ! ! T R *.] e 6 d ;.#.#.=.t.",
"l.6.A V C & 5 & c F F A V Z Z ( Z ( G Z Z G G Z Z ( Z ` Z V D G b + 7 $ S G F 5.c.",
"P.n.& & - 2 5 2 % & & 7 7 > 7 q > > , q + q 7 0 > 7 7 < 7 7 & & > 0 9 3 & & % A.U.",
"I.A.7   X + < + - & & < & & & & & 7 0 2 # 7 X & X & & & & . > > X > 6 & - & % n.K.",
"s.6.` H H H ` o.o.o.o.o.' ' ' ) ' ' N   8 O G _ ) ' ' ' ' ' o.o.P P P K ' ` P 4.a.",
"f.{ #.#.*.*.*.#.=.%.#.~ *.*.=.=.=.! X.= 9 h >.W *.=.*.~ =.*.*.*.=.=.:.! %.#.*.{ w.",
"r.! =.=.=.#.#.#.=.#.=.=.#.~ =.=.=.=.| s 6 s *.*.=.=.=.=.=.=.=.~ =.=.#.=.*.#.~ #.u.",
"f.=.=.~ #.#.#.=.=.=.=.#.=.=.=.=.#.=.{ t 6 s { =.=.=.=.=.#.=.=.=.=.=.=.#.*.%.~ #.f.",
"d.=.=.=.#.%.~ =.=.=.=.~ #.=.=.=.=.=.{ h 8 s *.*.=.=.=.=.=.=.~ #.=.=.=.%.;.%.! %.d.",
"d.=.=.=.=.#.#.=.=.=.=.=.=.=.=.#.=.=.-.t 6 s { =.=.=.=.=.=.=.=.=.=.=.=.~ *.%.! %.t.",
"g.=.=.~ #.#.#.=.=.=.=.=.=.=.=.~ =.=.-.t 8 s { *.=.=.=.=.=.=.~ =.=.=.=.#.*.#.~ &.q.",
"h.~ =.~ R ~ =.=.~ #.=.#.=.*.=.=.=.! ;.t & s { =.=.! *.=.=.=.~ E ~ E ~ ~ =.=.Q <.t.",
"d.! =.=.! ! ! =.=.=.=.=.=.=.=.=.#.#. .h & a { :.=.=.#.@.#.~ R ! / Q ~ ! @.*.R <.r.",
"d.@.#.%.#.@.:.#.:.#.@.#.%.%.%.%.%.#.{ h 9 k  .%.%.%.%.%.%.#.*.=.*.:.#.#.#.=.Q :.u.",
"f.=.#.#.#.@.#.R R R R R *.T ! *.*.! I y 0 l *.R ! *.! ! ! R #.R R #.#.Y %.! Q ~ w.",
"v.X.>.X.{ ..{ | X.{ | { { { -.>.{ { } 3.2.L { -.{ -.-.;.{ { ;.-.I @.;.-.,...U X.c."
};
